<svg width="200" height="130" data-name="wise" xmlns="http://www.w3.org/2000/svg" viewBox="0 -0.02999258041381836 704.0699462890625 337.6400146484375"><path d="M179.48 137.6 204.11 2.95h51.32l-45.57 214.73h-53.68L127.42 95.27 99.25 217.68H45.72L0 2.95h51.47L76.1 137.6 105.59 2.95h43.95zm151.31 80.08h-51.62V2.95h51.62zm146.75-57.08q0-11.355-8.04-17.7c-5.36-4.22-14.77-8.61-28.24-13.13s-24.48-8.9-33.04-13.13c-27.82-13.66-41.74-32.45-41.74-56.34 0-11.89 3.47-22.4 10.4-31.49s16.74-16.17 29.42-21.24 26.94-7.6 42.77-7.6 29.27 2.75 41.52 8.26c12.24 5.51 21.75 13.35 28.54 23.52 6.78 10.18 10.18 21.81 10.18 34.88h-51.62c0-8.75-2.68-15.54-8.04-20.35s-12.61-7.23-21.75-7.23-16.54 2.04-21.9 6.12-8.04 9.27-8.04 15.56c0 5.51 2.95 10.49 8.85 14.97s16.28 9.09 31.12 13.86 27.04 9.9 36.57 15.41c23.21 13.37 34.8 31.8 34.8 55.3 0 18.78-7.08 33.53-21.24 44.24s-33.57 16.08-58.25 16.08c-17.4 0-33.16-3.12-47.27-9.36-14.11-6.25-24.72-14.8-31.86-25.66-7.13-10.86-10.69-23.38-10.69-37.53h51.91c0 11.5 2.97 19.98 8.92 25.44q8.925 8.19 28.98 8.19c8.55 0 15.32-1.84 20.28-5.53s7.45-8.87 7.45-15.56Zm211.48-34.06h-81.41v51.32h96.16v39.82H555.85V2.95h148.22v39.97h-96.45V88.2h81.41v38.34ZM89.36 307.01H60.49v29.59H42.58v-74.29h49.69v13.83H60.49v17.09h28.87zm37.97 3.32h-9.69v26.27H99.73v-74.29h29.23c8.81 0 15.7 1.95 20.67 5.86 4.96 3.91 7.45 9.43 7.45 16.57 0 5.16-1.04 9.45-3.14 12.84-2.1 3.4-5.36 6.15-9.82 8.26l15.51 29.99v.77h-19.18zm-9.69-13.78h11.32c3.4 0 5.96-.9 7.68-2.69s2.58-4.29 2.58-7.49-.87-5.72-2.6-7.55c-1.74-1.82-4.29-2.73-7.66-2.73h-11.32zm96.32 8.52H185.8v17.75h33.27v13.78h-51.18v-74.29h51.27v13.83H185.8v15.65h28.16v13.27Zm50.71 11.79c0-2.62-.93-4.67-2.78-6.13-1.85-1.45-5.11-2.97-9.77-4.54-4.67-1.56-8.47-3.08-11.43-4.54-9.63-4.73-14.44-11.22-14.44-19.49 0-4.12 1.2-7.74 3.6-10.89 2.39-3.15 5.78-5.59 10.18-7.35 4.38-1.75 9.32-2.62 14.79-2.62s10.13.95 14.37 2.85c4.23 1.91 7.52 4.62 9.87 8.14s3.52 7.54 3.52 12.06h-17.86c0-3.02-.93-5.37-2.78-7.04-1.85-1.66-4.36-2.5-7.52-2.5s-5.73.71-7.58 2.12-2.78 3.2-2.78 5.38c0 1.9 1.02 3.62 3.07 5.17s5.63 3.15 10.77 4.79c5.14 1.65 9.35 3.43 12.65 5.34 8.03 4.62 12.04 11 12.04 19.13 0 6.5-2.44 11.6-7.34 15.31s-11.62 5.56-20.15 5.56c-6.03 0-11.47-1.09-16.36-3.24-4.88-2.16-8.55-5.12-11.02-8.87-2.47-3.76-3.7-8.09-3.7-12.99h17.96c0 3.98 1.03 6.91 3.09 8.8 2.05 1.9 5.39 2.83 10.03 2.83 2.96 0 5.3-.63 7.02-1.91 1.72-1.29 2.57-3.08 2.57-5.38Zm89.18 19.74h-17.8v-31.02h-26.38v31.02h-17.91v-74.29h17.91v29.49h26.38v-29.49h17.8zm68.89-27.71 8.52-46.58h17.76l-15.77 74.29h-18.57l-9.95-42.35-9.74 42.35h-18.52l-15.81-74.29h17.8l8.52 46.58 10.21-46.58h15.2l10.36 46.58ZM496 322.73h-24.53l-4.29 13.87h-19.14l27.25-74.29h16.83l27.45 74.29h-19.24l-4.34-13.87Zm-20.26-13.83h15.97l-8.01-25.77zm101.45-32.76h-22.3v60.46h-17.91v-60.46h-21.89v-13.83h62.1zm53.62 28.93h-28.16v17.75h33.27v13.78h-51.18v-74.29h51.27v13.83h-33.36v15.65h28.16v13.27Zm40 5.26h-9.69v26.27h-17.91v-74.29h29.23c8.81 0 15.7 1.95 20.67 5.86 4.96 3.91 7.45 9.43 7.45 16.57 0 5.16-1.04 9.45-3.14 12.84-2.1 3.4-5.36 6.15-9.82 8.26l15.51 29.99v.77h-19.18zm-9.69-13.78h11.32c3.4 0 5.96-.9 7.68-2.69s2.58-4.29 2.58-7.49-.87-5.72-2.6-7.55c-1.74-1.82-4.29-2.73-7.66-2.73h-11.32z" style="fill:#0079cf;stroke-width:0"/></svg>