<svg width="200" height="100" data-name="wise" xmlns="http://www.w3.org/2000/svg" viewBox="0 -0.02999258041381836 704.0699462890625 220.62001037597656"><path d="M179.48 137.6 204.11 2.95h51.32l-45.57 214.73h-53.68L127.42 95.27 99.25 217.68H45.72L0 2.95h51.47L76.1 137.6 105.59 2.95h43.95zm151.31 80.08h-51.62V2.95h51.62zm146.75-57.08q0-11.355-8.04-17.7c-5.36-4.22-14.77-8.61-28.24-13.13s-24.48-8.9-33.04-13.13c-27.82-13.66-41.74-32.45-41.74-56.34 0-11.89 3.47-22.4 10.4-31.49s16.74-16.17 29.42-21.24 26.94-7.6 42.77-7.6 29.27 2.75 41.52 8.26c12.24 5.51 21.75 13.35 28.54 23.52 6.78 10.18 10.18 21.81 10.18 34.88h-51.62c0-8.75-2.68-15.54-8.04-20.35s-12.61-7.23-21.75-7.23-16.54 2.04-21.9 6.12-8.04 9.27-8.04 15.56c0 5.51 2.95 10.49 8.85 14.97s16.28 9.09 31.12 13.86 27.04 9.9 36.57 15.41c23.21 13.37 34.8 31.8 34.8 55.3 0 18.78-7.08 33.53-21.24 44.24s-33.57 16.08-58.25 16.08c-17.4 0-33.16-3.12-47.27-9.36-14.11-6.25-24.72-14.8-31.86-25.66-7.13-10.86-10.69-23.38-10.69-37.53h51.91c0 11.5 2.97 19.98 8.92 25.44q8.925 8.19 28.98 8.19c8.55 0 15.32-1.84 20.28-5.53s7.45-8.87 7.45-15.56Zm211.48-34.06h-81.41v51.32h96.16v39.82H555.85V2.95h148.22v39.97h-96.45V88.2h81.41v38.34Z" style="fill:#0079cf;stroke-width:0"/></svg>